<svg id="visual" viewBox="0 0 900 600" width="900" height="600" xmlns="http://www.w3.org/2000/svg" xmlns:xlink="http://www.w3.org/1999/xlink" version="1.1"><path d="M0 353L21.5 358C43 363 86 373 128.8 378.3C171.7 383.7 214.3 384.3 257.2 393C300 401.7 343 418.3 385.8 413.3C428.7 408.3 471.3 381.7 514.2 382.3C557 383 600 411 642.8 418.2C685.7 425.3 728.3 411.7 771.2 404.5C814 397.3 857 396.7 878.5 396.3L900 396L900 601L878.5 601C857 601 814 601 771.2 601C728.3 601 685.7 601 642.8 601C600 601 557 601 514.2 601C471.3 601 428.7 601 385.8 601C343 601 300 601 257.2 601C214.3 601 171.7 601 128.8 601C86 601 43 601 21.5 601L0 601Z" fill="#84dbb3"></path><path d="M0 460L21.5 462.5C43 465 86 470 128.8 469C171.7 468 214.3 461 257.2 449.2C300 437.3 343 420.7 385.8 425C428.7 429.3 471.3 454.7 514.2 464.5C557 474.3 600 468.7 642.8 458.8C685.7 449 728.3 435 771.2 434.3C814 433.7 857 446.3 878.5 452.7L900 459L900 601L878.5 601C857 601 814 601 771.2 601C728.3 601 685.7 601 642.8 601C600 601 557 601 514.2 601C471.3 601 428.7 601 385.8 601C343 601 300 601 257.2 601C214.3 601 171.7 601 128.8 601C86 601 43 601 21.5 601L0 601Z" fill="#72d6a7"></path><path d="M0 478L21.5 480.5C43 483 86 488 128.8 488.3C171.7 488.7 214.3 484.3 257.2 485C300 485.7 343 491.3 385.8 484.2C428.7 477 471.3 457 514.2 456.3C557 455.7 600 474.3 642.8 477.5C685.7 480.7 728.3 468.3 771.2 469.2C814 470 857 484 878.5 491L900 498L900 601L878.5 601C857 601 814 601 771.2 601C728.3 601 685.7 601 642.8 601C600 601 557 601 514.2 601C471.3 601 428.7 601 385.8 601C343 601 300 601 257.2 601C214.3 601 171.7 601 128.8 601C86 601 43 601 21.5 601L0 601Z" fill="#60d09b"></path><path d="M0 536L21.5 527.5C43 519 86 502 128.8 493.5C171.7 485 214.3 485 257.2 489.5C300 494 343 503 385.8 509C428.7 515 471.3 518 514.2 514.7C557 511.3 600 501.7 642.8 499C685.7 496.3 728.3 500.7 771.2 506.8C814 513 857 521 878.5 525L900 529L900 601L878.5 601C857 601 814 601 771.2 601C728.3 601 685.7 601 642.8 601C600 601 557 601 514.2 601C471.3 601 428.7 601 385.8 601C343 601 300 601 257.2 601C214.3 601 171.7 601 128.8 601C86 601 43 601 21.5 601L0 601Z" fill="#4cca8e"></path><path d="M0 542L21.5 540C43 538 86 534 128.8 537C171.7 540 214.3 550 257.2 552.2C300 554.3 343 548.7 385.8 545.7C428.7 542.7 471.3 542.3 514.2 542.3C557 542.3 600 542.7 642.8 544.8C685.7 547 728.3 551 771.2 555.2C814 559.3 857 563.7 878.5 565.8L900 568L900 601L878.5 601C857 601 814 601 771.2 601C728.3 601 685.7 601 642.8 601C600 601 557 601 514.2 601C471.3 601 428.7 601 385.8 601C343 601 300 601 257.2 601C214.3 601 171.7 601 128.8 601C86 601 43 601 21.5 601L0 601Z" fill="#33c481"></path></svg>